# Blender v2.83.5 OBJ File: 'tictactoe.blend'
# www.blender.org
mtllib ex.mtl
v 1.000000 1.414213 0.001106
v 1.000000 0.001106 -1.414213
v 1.000000 -0.001106 1.414213
v 1.000000 -1.414213 -0.001106
v -1.000000 1.414213 0.001106
v -1.000000 0.001106 -1.414213
v -1.000000 -0.001106 1.414213
v -1.000000 -1.414213 -0.001106
v 1.000000 1.863486 3.281725
v 0.662372 2.340964 3.282098
v -0.662372 2.340964 3.282098
v -1.000000 1.863486 3.281725
v 1.000000 3.278805 1.868618
v 0.662372 3.278432 2.346096
v -0.662372 3.278432 2.346096
v -1.000000 3.278805 1.868618
v -1.000000 -3.301541 1.883271
v -0.662372 -3.301914 2.360749
v -0.662372 -2.365912 3.298217
v -1.000000 -1.888434 3.298590
v 1.000000 -1.888434 3.298590
v 0.662372 -2.365912 3.298217
v 0.662372 -3.301914 2.360749
v 1.000000 -3.301541 1.883271
v 0.662372 2.338032 -3.270380
v 1.000000 1.860554 -3.270753
v -1.000000 1.860554 -3.270753
v -0.662372 2.338032 -3.270380
v 0.662372 3.274034 -2.332912
v 1.000000 3.273660 -1.855434
v -1.000000 3.273660 -1.855434
v -0.662372 3.274034 -2.332912
v -1.000000 -1.908312 -3.326621
v -0.662372 -2.385790 -3.326994
v -0.662372 -3.323258 -2.390992
v -1.000000 -3.323631 -1.913514
v 1.000000 -1.908312 -3.326621
v 0.662372 -2.385790 -3.326994
v 0.662372 -3.323258 -2.390992
v 1.000000 -3.323631 -1.913514
vt 0.625000 0.250000
vt 0.625000 0.500000
vt 0.625000 0.500000
vt 0.625000 1.000000
vt 0.625000 0.750000
vt 0.625000 0.750000
vt 0.625000 0.000000
vt 0.375000 0.250000
vt 0.375000 0.000000
vt 0.125000 0.750000
vt 0.375000 0.750000
vt 0.375000 0.750000
vt 0.375000 0.500000
vt 0.625000 0.250000
vt 0.625000 0.750000
vt 0.625000 0.250000
vt 0.582797 0.792203
vt 0.417203 0.957796
vt 0.417203 0.792203
vt 0.832797 0.542203
vt 0.667204 0.707796
vt 0.667204 0.542204
vt 0.125000 0.750000
vt 0.625000 0.000000
vt 0.375000 0.750000
vt 0.125000 0.500000
vt 0.375000 0.500000
vt 0.625000 0.500000
vt 0.582797 0.292204
vt 0.417203 0.457796
vt 0.417203 0.292204
vt 0.332796 0.542203
vt 0.167204 0.707796
vt 0.167204 0.542204
vt 0.375000 0.250000
vt 0.125000 0.500000
vt 0.375000 0.000000
vt 0.375000 0.500000
vt 0.832796 0.707796
vt 0.875000 0.750000
vt 0.875000 0.500000
vt 0.625000 1.000000
vt 0.375000 1.000000
vt 0.167204 0.750000
vt 0.125000 0.500000
vt 0.332797 0.500000
vt 0.582796 0.457796
vt 0.332796 0.707796
vt 0.125000 0.750000
vt 0.625000 1.000000
vt 0.625000 0.000000
vt 0.582796 0.957796
vt 0.375000 0.000000
vt 0.375000 0.250000
vt 0.332797 0.750000
vt 0.167204 0.500000
vn 0.0000 0.7077 -0.7066
vn 0.0000 0.7066 0.7077
vn -1.0000 0.0000 0.0000
vn 0.0000 -0.7077 0.7066
vn 1.0000 0.0000 0.0000
vn 0.0000 -0.7066 -0.7077
vn 0.0000 -0.0008 1.0000
vn 0.7071 0.4996 0.5004
vn -0.7071 0.4996 0.5004
vn 0.0000 1.0000 0.0008
vn -0.7071 -0.5004 0.4996
vn 0.7071 -0.5004 0.4996
vn 0.0000 -1.0000 -0.0008
vn 0.0000 0.0008 -1.0000
vn 0.7071 0.5004 -0.4996
vn -0.7071 0.5004 -0.4996
vn -0.7071 -0.4996 -0.5004
vn 0.7071 -0.4996 -0.5004
usemtl Material
s off
f 5/1/1 13/2/1 1/3/1
f 7/4/2 21/5/2 3/6/2
f 7/7/3 6/8/3 8/9/3
f 8/10/4 40/11/4 4/12/4
f 1/3/5 4/12/5 2/13/5
f 1/3/2 31/14/2 5/1/2
f 1/3/5 9/15/5 3/6/5
f 7/7/3 16/16/3 5/1/3
f 22/17/4 18/18/4 23/19/4
f 15/20/2 10/21/2 14/22/2
f 4/12/6 17/23/6 8/10/6
f 8/9/3 20/24/3 7/7/3
f 3/6/5 24/25/5 4/12/5
f 6/26/6 26/27/6 2/13/6
f 2/13/5 30/28/5 1/3/5
f 32/29/1 25/30/1 28/31/1
f 38/32/6 35/33/6 34/34/6
f 5/1/3 27/35/3 6/8/3
f 2/13/1 33/36/1 6/26/1
f 6/8/3 36/37/3 8/9/3
f 4/12/5 37/38/5 2/13/5
f 11/39/7 9/15/7 10/21/7
f 10/21/8 13/2/8 14/22/8
f 15/20/9 12/40/9 11/39/9
f 14/22/10 16/41/10 15/20/10
f 18/18/11 20/42/11 17/43/11
f 22/17/12 24/25/12 21/5/12
f 20/42/7 22/17/7 21/5/7
f 24/25/13 18/44/13 17/23/13
f 27/45/14 25/46/14 26/27/14
f 26/27/15 29/47/15 30/28/15
f 32/29/16 27/35/16 31/14/16
f 30/28/10 32/29/10 31/14/10
f 35/33/17 33/36/17 34/34/17
f 34/34/14 37/38/14 38/32/14
f 39/48/13 36/49/13 35/33/13
f 38/32/18 40/11/18 39/48/18
f 3/6/4 12/50/4 7/4/4
f 5/1/1 16/16/1 13/2/1
f 7/4/2 20/42/2 21/5/2
f 7/7/3 5/1/3 6/8/3
f 8/10/4 36/49/4 40/11/4
f 1/3/5 3/6/5 4/12/5
f 1/3/2 30/28/2 31/14/2
f 1/3/5 13/2/5 9/15/5
f 7/7/3 12/51/3 16/16/3
f 22/17/4 19/52/4 18/18/4
f 15/20/2 11/39/2 10/21/2
f 4/12/6 24/25/6 17/23/6
f 8/9/3 17/53/3 20/24/3
f 3/6/5 21/5/5 24/25/5
f 6/26/6 27/45/6 26/27/6
f 2/13/5 26/27/5 30/28/5
f 32/29/1 29/47/1 25/30/1
f 38/32/6 39/48/6 35/33/6
f 5/1/3 31/14/3 27/35/3
f 2/13/1 37/38/1 33/36/1
f 6/8/3 33/54/3 36/37/3
f 4/12/5 40/11/5 37/38/5
f 11/39/7 12/40/7 9/15/7
f 10/21/8 9/15/8 13/2/8
f 15/20/9 16/41/9 12/40/9
f 14/22/10 13/2/10 16/41/10
f 18/18/11 19/52/11 20/42/11
f 22/17/12 23/19/12 24/25/12
f 20/42/7 19/52/7 22/17/7
f 24/25/13 23/55/13 18/44/13
f 27/45/14 28/56/14 25/46/14
f 26/27/15 25/30/15 29/47/15
f 32/29/16 28/31/16 27/35/16
f 30/28/10 29/47/10 32/29/10
f 35/33/17 36/49/17 33/36/17
f 34/34/14 33/36/14 37/38/14
f 39/48/13 40/11/13 36/49/13
f 38/32/18 37/38/18 40/11/18
f 3/6/4 9/15/4 12/50/4
