# Blender v2.83.5 OBJ File: 'tictactoe.blend'
# www.blender.org
mtllib oh.mtl
v -0.000000 -3.461837 0.000000
v 0.658480 -2.983423 0.000000
v 0.406963 -2.209333 0.000000
v -0.406963 -2.209333 0.000000
v -0.658481 -2.983423 0.000000
v -0.000000 -2.800685 -2.034817
v 0.658480 -2.413640 -1.753612
v 0.406963 -1.787388 -1.298613
v -0.406963 -1.787388 -1.298613
v -0.658481 -2.413640 -1.753612
v -0.000000 -1.069767 -3.292403
v 0.658481 -0.921929 -2.837404
v 0.406963 -0.682722 -2.101200
v -0.406963 -0.682722 -2.101200
v -0.658481 -0.921929 -2.837404
v 0.000000 1.069767 -3.292403
v 0.658481 0.921929 -2.837404
v 0.406963 0.682721 -2.101200
v -0.406963 0.682721 -2.101200
v -0.658481 0.921929 -2.837404
v 0.000000 2.800686 -2.034816
v 0.658481 2.413641 -1.753611
v 0.406963 1.787388 -1.298613
v -0.406963 1.787388 -1.298613
v -0.658480 2.413641 -1.753611
v 0.000000 3.461837 -0.000000
v 0.658481 2.983423 -0.000000
v 0.406963 2.209333 -0.000000
v -0.406963 2.209333 -0.000000
v -0.658480 2.983423 -0.000000
v 0.000000 2.800686 2.034816
v 0.658481 2.413641 1.753611
v 0.406963 1.787388 1.298613
v -0.406963 1.787388 1.298613
v -0.658480 2.413641 1.753611
v 0.000000 1.069767 3.292403
v 0.658481 0.921929 2.837404
v 0.406963 0.682721 2.101200
v -0.406963 0.682721 2.101200
v -0.658481 0.921929 2.837404
v -0.000000 -1.069767 3.292403
v 0.658481 -0.921929 2.837404
v 0.406963 -0.682722 2.101200
v -0.406963 -0.682722 2.101200
v -0.658481 -0.921929 2.837404
v -0.000000 -2.800684 2.034818
v 0.658480 -2.413639 1.753613
v 0.406963 -1.787387 1.298614
v -0.406963 -1.787387 1.298614
v -0.658481 -2.413639 1.753613
vt 0.700000 0.600000
vt 0.600000 0.800000
vt 0.600000 0.600000
vt 0.700000 0.800000
vt 0.600000 1.000000
vt 0.700000 0.000000
vt 0.600000 0.200000
vt 0.600000 0.000000
vt 0.700000 0.200000
vt 0.600000 0.400000
vt 0.700000 0.400000
vt 0.800000 0.600000
vt 0.800000 1.000000
vt 0.700000 1.000000
vt 0.800000 0.000000
vt 0.800000 0.200000
vt 0.900000 0.600000
vt 0.800000 0.800000
vt 0.900000 0.800000
vt 0.900000 0.000000
vt 0.900000 0.200000
vt 0.800000 0.400000
vt 0.900000 0.400000
vt 1.000000 0.800000
vt 0.900000 1.000000
vt 1.000000 0.000000
vt 1.000000 0.200000
vt 1.000000 0.400000
vt 0.100000 0.600000
vt -0.000000 0.800000
vt -0.000000 0.600000
vt 0.100000 1.000000
vt -0.000000 1.000000
vt 0.100000 0.000000
vt -0.000000 0.200000
vt -0.000000 0.000000
vt 0.100000 0.200000
vt -0.000000 0.400000
vt 0.100000 0.400000
vt 0.200000 0.600000
vt 0.100000 0.800000
vt 0.200000 0.800000
vt 0.200000 0.000000
vt 0.200000 0.200000
vt 0.300000 0.600000
vt 0.300000 0.800000
vt 0.200000 1.000000
vt 0.300000 0.000000
vt 0.300000 0.200000
vt 0.200000 0.400000
vt 0.300000 0.400000
vt 0.400000 0.600000
vt 0.400000 0.800000
vt 0.300000 1.000000
vt 0.400000 0.000000
vt 0.400000 0.200000
vt 0.400000 0.400000
vt 0.500000 0.600000
vt 0.500000 0.800000
vt 0.400000 1.000000
vt 0.500000 0.000000
vt 0.500000 0.200000
vt 0.500000 0.400000
vt 0.500000 1.000000
vt 1.000000 0.600000
vt 1.000000 1.000000
vn 0.5685 -0.7824 -0.2542
vn 0.9463 0.3075 0.0999
vn 0.0000 0.9511 0.3090
vn -0.9463 0.3075 0.0999
vn -0.5685 -0.7824 -0.2542
vn 0.5685 -0.4836 -0.6656
vn 0.9463 0.1900 0.2616
vn 0.0000 0.5878 0.8090
vn -0.9463 0.1900 0.2616
vn -0.5685 -0.4836 -0.6656
vn 0.5685 -0.0000 -0.8227
vn 0.9463 -0.0000 0.3233
vn 0.0000 0.0000 1.0000
vn -0.9463 0.0000 0.3233
vn -0.5685 0.0000 -0.8227
vn 0.5685 0.4836 -0.6656
vn 0.9463 -0.1900 0.2616
vn 0.0000 -0.5878 0.8090
vn -0.9463 -0.1900 0.2616
vn -0.5685 0.4836 -0.6656
vn 0.5685 0.7824 -0.2542
vn 0.9463 -0.3075 0.0999
vn 0.0000 -0.9511 0.3090
vn -0.9463 -0.3075 0.0999
vn -0.5685 0.7824 -0.2542
vn 0.5685 0.7824 0.2542
vn 0.9463 -0.3075 -0.0999
vn 0.0000 -0.9511 -0.3090
vn -0.9463 -0.3075 -0.0999
vn -0.5685 0.7824 0.2542
vn 0.5685 0.4836 0.6656
vn 0.9463 -0.1900 -0.2616
vn 0.0000 -0.5878 -0.8090
vn -0.9463 -0.1900 -0.2616
vn -0.5685 0.4836 0.6656
vn 0.5685 -0.0000 0.8227
vn 0.9463 -0.0000 -0.3233
vn 0.0000 0.0000 -1.0000
vn -0.9463 0.0000 -0.3233
vn -0.5685 0.0000 0.8227
vn 0.5685 -0.4836 0.6656
vn 0.9463 0.1900 -0.2616
vn 0.0000 0.5878 -0.8090
vn -0.9463 0.1900 -0.2616
vn -0.5685 -0.4836 0.6656
vn 0.5685 -0.7824 0.2542
vn 0.9463 0.3075 -0.0999
vn 0.0000 0.9511 -0.3090
vn -0.9463 0.3075 -0.0999
vn -0.5685 -0.7824 0.2542
usemtl None
s off
f 6/1/1 2/2/1 1/3/1
f 7/4/2 3/5/2 2/2/2
f 8/6/3 4/7/3 3/8/3
f 9/9/4 5/10/4 4/7/4
f 10/11/5 1/3/5 5/10/5
f 11/12/6 7/4/6 6/1/6
f 7/4/7 13/13/7 8/14/7
f 13/15/8 9/9/8 8/6/8
f 14/16/9 10/11/9 9/9/9
f 10/11/10 11/12/10 6/1/10
f 16/17/11 12/18/11 11/12/11
f 17/19/12 13/13/12 12/18/12
f 18/20/13 14/16/13 13/15/13
f 19/21/14 15/22/14 14/16/14
f 20/23/15 11/12/15 15/22/15
f 16/17/16 22/24/16 17/19/16
f 22/24/17 18/25/17 17/19/17
f 23/26/18 19/21/18 18/20/18
f 24/27/19 20/23/19 19/21/19
f 25/28/20 16/17/20 20/23/20
f 26/29/21 22/30/21 21/31/21
f 22/30/22 28/32/22 23/33/22
f 28/34/23 24/35/23 23/36/23
f 29/37/24 25/38/24 24/35/24
f 30/39/25 21/31/25 25/38/25
f 31/40/26 27/41/26 26/29/26
f 32/42/27 28/32/27 27/41/27
f 33/43/28 29/37/28 28/34/28
f 34/44/29 30/39/29 29/37/29
f 30/39/30 31/40/30 26/29/30
f 36/45/31 32/42/31 31/40/31
f 37/46/32 33/47/32 32/42/32
f 38/48/33 34/44/33 33/43/33
f 39/49/34 35/50/34 34/44/34
f 40/51/35 31/40/35 35/50/35
f 41/52/36 37/46/36 36/45/36
f 42/53/37 38/54/37 37/46/37
f 43/55/38 39/49/38 38/48/38
f 44/56/39 40/51/39 39/49/39
f 45/57/40 36/45/40 40/51/40
f 46/58/41 42/53/41 41/52/41
f 47/59/42 43/60/42 42/53/42
f 48/61/43 44/56/43 43/55/43
f 49/62/44 45/57/44 44/56/44
f 50/63/45 41/52/45 45/57/45
f 46/58/46 2/2/46 47/59/46
f 2/2/47 48/64/47 47/59/47
f 3/8/48 49/62/48 48/61/48
f 49/62/49 5/10/49 50/63/49
f 50/63/50 1/3/50 46/58/50
f 6/1/1 7/4/1 2/2/1
f 7/4/2 8/14/2 3/5/2
f 8/6/3 9/9/3 4/7/3
f 9/9/4 10/11/4 5/10/4
f 10/11/5 6/1/5 1/3/5
f 11/12/6 12/18/6 7/4/6
f 7/4/7 12/18/7 13/13/7
f 13/15/8 14/16/8 9/9/8
f 14/16/9 15/22/9 10/11/9
f 10/11/10 15/22/10 11/12/10
f 16/17/11 17/19/11 12/18/11
f 17/19/12 18/25/12 13/13/12
f 18/20/13 19/21/13 14/16/13
f 19/21/14 20/23/14 15/22/14
f 20/23/15 16/17/15 11/12/15
f 16/17/16 21/65/16 22/24/16
f 22/24/17 23/66/17 18/25/17
f 23/26/18 24/27/18 19/21/18
f 24/27/19 25/28/19 20/23/19
f 25/28/20 21/65/20 16/17/20
f 26/29/21 27/41/21 22/30/21
f 22/30/22 27/41/22 28/32/22
f 28/34/23 29/37/23 24/35/23
f 29/37/24 30/39/24 25/38/24
f 30/39/25 26/29/25 21/31/25
f 31/40/26 32/42/26 27/41/26
f 32/42/27 33/47/27 28/32/27
f 33/43/28 34/44/28 29/37/28
f 34/44/29 35/50/29 30/39/29
f 30/39/30 35/50/30 31/40/30
f 36/45/31 37/46/31 32/42/31
f 37/46/32 38/54/32 33/47/32
f 38/48/33 39/49/33 34/44/33
f 39/49/34 40/51/34 35/50/34
f 40/51/35 36/45/35 31/40/35
f 41/52/36 42/53/36 37/46/36
f 42/53/37 43/60/37 38/54/37
f 43/55/38 44/56/38 39/49/38
f 44/56/39 45/57/39 40/51/39
f 45/57/40 41/52/40 36/45/40
f 46/58/41 47/59/41 42/53/41
f 47/59/42 48/64/42 43/60/42
f 48/61/43 49/62/43 44/56/43
f 49/62/44 50/63/44 45/57/44
f 50/63/45 46/58/45 41/52/45
f 46/58/46 1/3/46 2/2/46
f 2/2/47 3/5/47 48/64/47
f 3/8/48 4/7/48 49/62/48
f 49/62/49 4/7/49 5/10/49
f 50/63/50 5/10/50 1/3/50
